<?xml version="1.0" encoding="utf-8"?>
<svg version="1.1" xmlns="http://www.w3.org/2000/svg" xmlns:xlink="http://www.w3.org/1999/xlink" x="0px" y="0px"
         viewBox="0 0 30 30" style="enable-background:new 0 0 30 30;" xml:space="preserve">
<defs>
  <style type="text/css">
    .badge {fill:#2D2D2D;stroke:#FFFFFF;stroke-width:0.6317;stroke-miterlimit:10;}
    .mk {fill:#FFFFFF;}

    .z-breathe {
      animation: breathe 3.2s ease-in-out infinite;
    }
    @keyframes breathe {
      0%, 100% { opacity: 0.7; }
      50% { opacity: 1; }
    }
  </style>
</defs>

<g>
  <path class="badge" d="M24.51,28.51H5.49c-2.21,0-4-1.79-4-4V5.49c0-2.21,1.79-4,4-4h19.03c2.21,0,4,1.79,4,4v19.03
    C28.51,26.72,26.72,28.51,24.51,28.51z"/>
  <g class="z-breathe">
    <g class="mk" transform="translate(15,15) scale(0.05555555555555555) translate(-180,-160)">
      <polygon points="180,0 238,0 128,320 58,320"/>
      <polygon points="180,0 122,0 232,320 302,320"/>
      <rect x="70" y="196" width="221" height="20"/>
      <rect x="62" y="160" width="14" height="92"/>
      <rect x="80" y="174" width="11" height="64"/>
      <rect x="284" y="160" width="14" height="92"/>
      <rect x="269" y="174" width="11" height="64"/>
      <polygon points="180,-34 214,10 146,10"/>
    </g>
  </g>
</g>
</svg>